G04 Layer: BottomLayer*
G04 EasyEDA v6.5.22, 2023-01-18 18:11:45*
G04 3f45770606e946e99412526f685ae31c,41bbaa2022c14ae6819927e2b53804d3,10*
G04 Gerber Generator version 0.2*
G04 Scale: 100 percent, Rotated: No, Reflected: No *
G04 Dimensions in millimeters *
G04 leading zeros omitted , absolute positions ,4 integer and 5 decimal *
%FSLAX45Y45*%
%MOMM*%

%AMMACRO1*21,1,$1,$2,0,0,$3*%
%AMMACRO2*4,1,4,2.7338,1.9411,0.3142,3.3381,-2.7338,-1.9411,-0.3142,-3.3381,2.7338,1.9411,0*%
%AMMACRO3*4,1,4,0.3142,3.3381,-2.7338,-1.9411,-0.3142,-3.3381,2.7338,1.9411,0.3142,3.3381,0*%
%ADD10C,0.4000*%
%ADD11C,0.2540*%
%ADD12R,20.0000X5.0000*%
%ADD13MACRO1,4.2X3.8X0.0000*%
%ADD14MACRO1,1.35X1.41X-149.9989*%
%ADD15MACRO1,0.8X0.7X0.0000*%
%ADD16MACRO1,1.377X1.1325X-149.9995*%
%ADD17MACRO1,0.6X1.4X-108.0016*%
%ADD18MACRO1,0.6X1.4X-108.0008*%
%ADD19MACRO1,1X0.7X-108.0028*%
%ADD20MACRO1,1X0.7X-108.0033*%
%ADD21MACRO1,1X0.7X-108.0014*%
%ADD22MACRO2*%
%ADD23C,18.0000*%
%ADD24MACRO3*%

%LPD*%
D10*
X-5999988Y1043393D02*
G01*
X-5999988Y299999D01*
X-5899988Y249999D01*
X-5699988Y249999D01*
X-4999990Y-699998D01*
X-6259987Y983396D02*
G01*
X-6149987Y629998D01*
X-6270249Y362178D01*
X-6099987Y1216601D02*
G01*
X-5729988Y1149997D01*
X-4940587Y1120838D01*
X-6316472Y219455D02*
G01*
X-5945886Y-153923D01*
X-6438493Y-699998D02*
G01*
X-5945863Y-153898D01*
X-3561486Y-699998D02*
G01*
X-4999990Y-699998D01*
X-4999990Y-699998D02*
G01*
X-3799992Y199999D01*
X-3799992Y799998D01*
X-3899992Y899998D01*
X-4740587Y1120838D01*
D11*
X-4940554Y1220723D02*
G01*
X-4940554Y1120902D01*
X-6320028Y1139952D02*
G01*
X-6097016Y1218184D01*
X-4740656Y1220723D02*
G01*
X-4740656Y1120902D01*
D12*
G01*
X-4896045Y568012D03*
D13*
G01*
X-6438493Y-699998D03*
G01*
X-3561486Y-699998D03*
D14*
G01*
X-5999986Y1043393D03*
G01*
X-6099990Y1216602D03*
D15*
G01*
X-4940587Y1220849D03*
G01*
X-4940587Y1120849D03*
G01*
X-4740587Y1220849D03*
G01*
X-4740587Y1120849D03*
D16*
G01*
X-6259984Y983391D03*
G01*
X-6359989Y1156604D03*
D17*
G01*
X-6316599Y219525D03*
G01*
X-6270245Y362179D03*
D18*
G01*
X-6409305Y-65791D03*
D19*
G01*
X-6756783Y-115867D03*
D20*
G01*
X-6538040Y-186938D03*
D21*
G01*
X-6303189Y535865D03*
G01*
X-6521932Y606936D03*
D22*
G01*
X-4054116Y-1246098D03*
D23*
G01*
X-4999990Y-699998D03*
D24*
G01*
X-5945863Y-153898D03*
M02*
