G04 Layer: BottomSolderMaskLayer*
G04 EasyEDA v6.5.22, 2023-01-18 18:11:45*
G04 3f45770606e946e99412526f685ae31c,41bbaa2022c14ae6819927e2b53804d3,10*
G04 Gerber Generator version 0.2*
G04 Scale: 100 percent, Rotated: No, Reflected: No *
G04 Dimensions in millimeters *
G04 leading zeros omitted , absolute positions ,4 integer and 5 decimal *
%FSLAX45Y45*%
%MOMM*%

%AMMACRO1*21,1,$1,$2,0,0,$3*%
%AMMACRO2*1,1,$1,$2,$3*1,1,$1,$4,$5*1,1,$1,0-$2,0-$3*1,1,$1,0-$4,0-$5*20,1,$1,$2,$3,$4,$5,0*20,1,$1,$4,$5,0-$2,0-$3,0*20,1,$1,0-$2,0-$3,0-$4,0-$5,0*20,1,$1,0-$4,0-$5,$2,$3,0*4,1,4,$2,$3,$4,$5,0-$2,0-$3,0-$4,0-$5,$2,$3,0*%
%AMMACRO3*4,1,32,-0.304,-3.4397,-0.3345,-3.4372,-0.365,-3.427,-0.3655,-3.4267,-2.7836,-2.0297,-2.7846,-2.03,-2.81,-2.0097,-2.8278,-1.9818,-2.8354,-1.9513,-2.8329,-1.9208,-2.8227,-1.8903,-2.8217,-1.89,0.2263,3.3881,0.2253,3.3889,0.2456,3.4143,0.2735,3.4321,0.304,3.4397,0.3345,3.4372,0.365,3.427,0.366,3.4262,2.7841,2.0292,2.7846,2.03,2.81,2.0097,2.8278,1.9818,2.8354,1.9513,2.8329,1.9208,2.8227,1.8903,2.8222,1.8895,-0.2258,-3.3886,-0.2253,-3.3889,-0.2456,-3.4143,-0.2735,-3.4321,-0.304,-3.4397,0*%
%AMMACRO4*4,1,32,-0.304,-3.4397,-0.3345,-3.4372,-0.365,-3.427,-0.366,-3.4267,-2.7841,-2.0297,-2.7846,-2.03,-2.81,-2.0097,-2.8278,-1.9818,-2.8354,-1.9513,-2.8329,-1.9208,-2.8227,-1.8903,-2.8222,-1.89,0.2258,3.3881,0.2253,3.3889,0.2456,3.4143,0.2735,3.4321,0.304,3.4397,0.3345,3.4372,0.365,3.427,0.3655,3.4262,2.7836,2.0292,2.7846,2.03,2.81,2.0097,2.8278,1.9818,2.8354,1.9513,2.8329,1.9208,2.8227,1.8903,2.8217,1.8895,-0.2263,-3.3886,-0.2253,-3.3889,-0.2456,-3.4143,-0.2735,-3.4321,-0.304,-3.4397,0*%
%ADD10MACRO1,19.4996X4.5009X0.0000*%
%ADD11MACRO2,0.1016X2.1X1.9X-2.1X1.9*%
%ADD12MACRO2,0.1016X0.2321X0.9481X-0.9371X0.273*%
%ADD13MACRO2,0.1016X0.9371X-0.273X-0.2321X-0.9481*%
%ADD14MACRO2,0.1016X0.4X0.35X-0.4X0.35*%
%ADD15MACRO2,0.1016X0.3131X0.8346X-0.8794X0.1462*%
%ADD16MACRO2,0.1016X0.8794X-0.1462X-0.3131X-0.8346*%
%ADD17MACRO2,0.2032X-0.573X0.5016X-0.7584X-0.069*%
%ADD18MACRO2,0.2032X-0.573X0.5016X-0.7585X-0.069*%
%ADD19MACRO2,0.2032X-0.1783X0.5837X-0.4874X-0.3674*%
%ADD20MACRO2,0.2032X-0.1784X0.5837X-0.4874X-0.3674*%
%ADD21MACRO3*%
%ADD22C,18.2032*%
%ADD23MACRO4*%

%LPD*%
G36*
X-4714951Y2271979D02*
G01*
X-4720793Y2271522D01*
X-4726381Y2270709D01*
X-4731867Y2269540D01*
X-4737150Y2268016D01*
X-4742281Y2266188D01*
X-4747260Y2264003D01*
X-4752086Y2261565D01*
X-4756759Y2258822D01*
X-4761331Y2255824D01*
X-4770018Y2249119D01*
X-4778248Y2241600D01*
X-4786020Y2233320D01*
X-4793437Y2224532D01*
X-4800447Y2215286D01*
X-4807204Y2205786D01*
X-4813655Y2196134D01*
X-4837633Y2158644D01*
X-4852924Y2130755D01*
X-4867808Y2102662D01*
X-4879441Y2080056D01*
X-4904841Y2028850D01*
X-4918506Y2000148D01*
X-4937150Y1959813D01*
X-4952796Y1925015D01*
X-4978044Y1866696D01*
X-5000193Y1813915D01*
X-5031282Y1737309D01*
X-5103672Y1554022D01*
X-5155844Y1413814D01*
X-5175148Y1361135D01*
X-5185613Y1331772D01*
X-5197906Y1296416D01*
X-5209844Y1261008D01*
X-5221325Y1225397D01*
X-5235752Y1177747D01*
X-5247487Y1135735D01*
X-5253736Y1111605D01*
X-5259628Y1087424D01*
X-5266486Y1056995D01*
X-5269636Y1045514D01*
X-5271871Y1033780D01*
X-5273192Y1021943D01*
X-5273548Y1010056D01*
X-5273395Y1004163D01*
X-5272989Y998321D01*
X-5271465Y986739D01*
X-5270296Y981100D01*
X-5267248Y970026D01*
X-5263184Y959459D01*
X-5260746Y954379D01*
X-5258054Y949452D01*
X-5255056Y944676D01*
X-5251856Y940104D01*
X-5248351Y935736D01*
X-5244592Y931570D01*
X-5240528Y927608D01*
X-5236210Y923899D01*
X-5231587Y920445D01*
X-5226710Y917244D01*
X-5221528Y914349D01*
X-5216042Y911707D01*
X-5210302Y909370D01*
X-5204256Y907389D01*
X-5197906Y905713D01*
X-5174742Y896823D01*
X-5151374Y888695D01*
X-5127752Y881227D01*
X-5103977Y874471D01*
X-5074005Y866952D01*
X-5061966Y864209D01*
X-5037785Y859231D01*
X-5013452Y854811D01*
X-4988966Y851001D01*
X-4970576Y848512D01*
X-4939792Y845007D01*
X-4915103Y842822D01*
X-4884166Y840740D01*
X-4859375Y839622D01*
X-4834534Y838962D01*
X-4809744Y838708D01*
X-4791151Y838809D01*
X-4766360Y839266D01*
X-4729276Y840689D01*
X-4686198Y843229D01*
X-4631436Y849376D01*
X-4607052Y852525D01*
X-4576622Y857097D01*
X-4558487Y860348D01*
X-4534509Y865327D01*
X-4522571Y868171D01*
X-4510735Y871270D01*
X-4499000Y874623D01*
X-4487316Y878281D01*
X-4469993Y884377D01*
X-4458614Y888847D01*
X-4447336Y893673D01*
X-4442663Y897483D01*
X-4438446Y901496D01*
X-4434535Y905713D01*
X-4431030Y910132D01*
X-4427829Y914653D01*
X-4424934Y919378D01*
X-4422394Y924204D01*
X-4420108Y929182D01*
X-4418076Y934313D01*
X-4416348Y939546D01*
X-4413605Y950264D01*
X-4412538Y955802D01*
X-4411065Y967079D01*
X-4410202Y978560D01*
X-4409948Y990244D01*
X-4410100Y1001979D01*
X-4411167Y1025398D01*
X-4412538Y1048308D01*
X-4413097Y1064717D01*
X-4420006Y1128217D01*
X-4427728Y1191615D01*
X-4435297Y1248613D01*
X-4442460Y1299210D01*
X-4451045Y1356055D01*
X-4462170Y1425397D01*
X-4477258Y1513586D01*
X-4488535Y1576425D01*
X-4500219Y1639265D01*
X-4520793Y1745894D01*
X-4545888Y1871116D01*
X-4559655Y1931974D01*
X-4570374Y1980895D01*
X-4580128Y2023668D01*
X-4586071Y2048002D01*
X-4590745Y2066188D01*
X-4600803Y2102307D01*
X-4606290Y2120239D01*
X-4614113Y2143912D01*
X-4622647Y2167382D01*
X-4631944Y2190546D01*
X-4636871Y2201976D01*
X-4644745Y2219045D01*
X-4650282Y2230272D01*
X-4653483Y2235657D01*
X-4656988Y2240889D01*
X-4660849Y2245918D01*
X-4665014Y2250744D01*
X-4669485Y2255164D01*
X-4674260Y2259228D01*
X-4679340Y2262835D01*
X-4684725Y2265984D01*
X-4690364Y2268474D01*
X-4696307Y2270404D01*
X-4702505Y2271572D01*
X-4709007Y2271979D01*
G37*
G36*
X-6576059Y122428D02*
G01*
X-6582867Y122123D01*
X-6589522Y120954D01*
X-6596024Y118922D01*
X-6602272Y116128D01*
X-6605219Y114503D01*
X-6610807Y110591D01*
X-6615836Y106070D01*
X-6620306Y100939D01*
X-6624116Y95300D01*
X-6627215Y89204D01*
X-6629501Y82804D01*
X-6630365Y79552D01*
X-6631431Y72796D01*
X-6631686Y66040D01*
X-6631076Y59232D01*
X-6629653Y52578D01*
X-6627418Y46177D01*
X-6624370Y40081D01*
X-6620662Y34391D01*
X-6616242Y29209D01*
X-6611213Y24638D01*
X-6605676Y20726D01*
X-6599681Y17475D01*
X-6593331Y15036D01*
X-6586778Y13309D01*
X-6580022Y12395D01*
X-6573215Y12293D01*
X-6569811Y12547D01*
X-6563156Y13766D01*
X-6559854Y14630D01*
X-6553504Y17018D01*
X-6547459Y20218D01*
X-6541871Y24079D01*
X-6536842Y28600D01*
X-6532372Y33731D01*
X-6528562Y39370D01*
X-6525463Y45466D01*
X-6523177Y51866D01*
X-6521704Y58470D01*
X-6521043Y65278D01*
X-6520992Y68681D01*
X-6521602Y75438D01*
X-6523024Y82092D01*
X-6525259Y88493D01*
X-6528307Y94589D01*
X-6532016Y100279D01*
X-6536435Y105460D01*
X-6541465Y110032D01*
X-6547002Y113995D01*
X-6552996Y117195D01*
X-6559346Y119633D01*
X-6565900Y121412D01*
X-6572656Y122326D01*
G37*
G36*
X-6481673Y406298D02*
G01*
X-6488379Y405638D01*
X-6494881Y404164D01*
X-6501231Y401929D01*
X-6507226Y398932D01*
X-6512814Y395224D01*
X-6517894Y390855D01*
X-6522415Y385927D01*
X-6526326Y380441D01*
X-6529527Y374548D01*
X-6531965Y368300D01*
X-6533642Y361848D01*
X-6534200Y358546D01*
X-6534657Y351840D01*
X-6534302Y345135D01*
X-6533134Y338531D01*
X-6531203Y332130D01*
X-6528460Y325983D01*
X-6525006Y320243D01*
X-6520891Y314960D01*
X-6516166Y310184D01*
X-6510883Y306070D01*
X-6505143Y302615D01*
X-6499047Y299872D01*
X-6492646Y297789D01*
X-6489395Y296976D01*
X-6482791Y296011D01*
X-6476085Y295859D01*
X-6469380Y296519D01*
X-6462877Y297992D01*
X-6456527Y300228D01*
X-6450533Y303225D01*
X-6444945Y306933D01*
X-6439865Y311302D01*
X-6435344Y316230D01*
X-6431432Y321716D01*
X-6428232Y327609D01*
X-6425793Y333806D01*
X-6424117Y340309D01*
X-6423558Y343611D01*
X-6423101Y350316D01*
X-6423456Y357022D01*
X-6424625Y363626D01*
X-6426555Y370027D01*
X-6429298Y376174D01*
X-6432702Y381914D01*
X-6436868Y387197D01*
X-6441592Y391972D01*
X-6446875Y396087D01*
X-6452616Y399542D01*
X-6458712Y402285D01*
X-6465062Y404368D01*
X-6471666Y405739D01*
X-6474968Y406146D01*
G37*
D10*
G01*
X-4895977Y567943D03*
D11*
G01*
X-6438493Y-699998D03*
G01*
X-3561486Y-699998D03*
D12*
G01*
X-5999985Y1043393D03*
D13*
G01*
X-6099990Y1216601D03*
D14*
G01*
X-4940587Y1220849D03*
G01*
X-4940587Y1120849D03*
G01*
X-4740587Y1220849D03*
G01*
X-4740587Y1120849D03*
D15*
G01*
X-6259984Y983391D03*
D16*
G01*
X-6359989Y1156604D03*
D17*
G01*
X-6316599Y219525D03*
G01*
X-6270247Y362179D03*
D18*
G01*
X-6409303Y-65791D03*
D19*
G01*
X-6756784Y-115867D03*
G01*
X-6538042Y-186938D03*
G01*
X-6303189Y535865D03*
D20*
G01*
X-6521931Y606936D03*
D21*
G01*
X-4054116Y-1246098D03*
D22*
G01*
X-4999990Y-699998D03*
D23*
G01*
X-5945863Y-153898D03*
M02*
