G04 Layer: TopLayer*
G04 EasyEDA v6.5.22, 2023-01-18 18:11:45*
G04 3f45770606e946e99412526f685ae31c,41bbaa2022c14ae6819927e2b53804d3,10*
G04 Gerber Generator version 0.2*
G04 Scale: 100 percent, Rotated: No, Reflected: No *
G04 Dimensions in millimeters *
G04 leading zeros omitted , absolute positions ,4 integer and 5 decimal *
%FSLAX45Y45*%
%MOMM*%

%ADD10C,7.0000*%
%ADD11C,1.0000*%
%ADD12C,1.2000*%
%ADD13C,1.5000*%

%LPD*%
D10*
G01*
X-3859992Y-900998D03*
G01*
X-6354986Y-580999D03*
G36*
X-6326347Y1525943D02*
G01*
X-6329753Y1524751D01*
X-6333002Y1523166D01*
X-6336093Y1521205D01*
X-6339034Y1518881D01*
X-6341836Y1516209D01*
X-6344498Y1513197D01*
X-6347028Y1509864D01*
X-6349431Y1506225D01*
X-6351714Y1502288D01*
X-6353883Y1498069D01*
X-6355943Y1493586D01*
X-6357899Y1488846D01*
X-6359758Y1483865D01*
X-6361526Y1478661D01*
X-6363205Y1473240D01*
X-6364805Y1467622D01*
X-6366332Y1461818D01*
X-6367787Y1455844D01*
X-6369182Y1449710D01*
X-6370518Y1443433D01*
X-6371800Y1437025D01*
X-6373037Y1430500D01*
X-6374236Y1423870D01*
X-6375397Y1417152D01*
X-6376530Y1410360D01*
X-6377640Y1403502D01*
X-6378732Y1396598D01*
X-6379814Y1389659D01*
X-6380888Y1382699D01*
X-6381963Y1375732D01*
X-6383040Y1368772D01*
X-6384129Y1361831D01*
X-6385237Y1354924D01*
X-6386367Y1348064D01*
X-6387523Y1341267D01*
X-6388714Y1334543D01*
X-6389651Y1329380D01*
X-6390647Y1323924D01*
X-6391696Y1318188D01*
X-6392796Y1312194D01*
X-6393939Y1305956D01*
X-6395125Y1299491D01*
X-6396347Y1292814D01*
X-6397604Y1285943D01*
X-6398887Y1278895D01*
X-6400195Y1271686D01*
X-6401523Y1264333D01*
X-6402870Y1256850D01*
X-6404226Y1249255D01*
X-6405590Y1241567D01*
X-6406956Y1233802D01*
X-6408323Y1225971D01*
X-6409684Y1218100D01*
X-6411038Y1210195D01*
X-6412377Y1202283D01*
X-6413698Y1194371D01*
X-6414998Y1186484D01*
X-6416271Y1178633D01*
X-6417515Y1170835D01*
X-6418724Y1163109D01*
X-6419895Y1155471D01*
X-6421023Y1147935D01*
X-6422105Y1140520D01*
X-6423136Y1133243D01*
X-6424109Y1126119D01*
X-6425026Y1119164D01*
X-6425877Y1112398D01*
X-6426662Y1105832D01*
X-6427373Y1099487D01*
X-6428008Y1093381D01*
X-6428562Y1087526D01*
X-6429032Y1081938D01*
X-6429415Y1076639D01*
X-6429702Y1071643D01*
X-6429893Y1066965D01*
X-6429982Y1062621D01*
X-6429966Y1058633D01*
X-6429839Y1055011D01*
X-6429601Y1051775D01*
X-6429242Y1048943D01*
X-6428762Y1046528D01*
X-6428153Y1044547D01*
X-6427416Y1043017D01*
X-6426542Y1041958D01*
X-6425468Y1041306D01*
X-6423995Y1040853D01*
X-6422133Y1040599D01*
X-6419895Y1040533D01*
X-6417297Y1040655D01*
X-6414350Y1040952D01*
X-6411069Y1041420D01*
X-6407462Y1042055D01*
X-6403545Y1042847D01*
X-6399334Y1043795D01*
X-6394836Y1044887D01*
X-6390065Y1046119D01*
X-6385039Y1047485D01*
X-6379766Y1048979D01*
X-6374259Y1050592D01*
X-6368534Y1052321D01*
X-6362600Y1054160D01*
X-6356471Y1056101D01*
X-6350165Y1058138D01*
X-6343688Y1060264D01*
X-6337053Y1062476D01*
X-6330279Y1064762D01*
X-6323373Y1067122D01*
X-6316352Y1069545D01*
X-6309225Y1072027D01*
X-6302009Y1074562D01*
X-6294714Y1077140D01*
X-6287353Y1079761D01*
X-6279939Y1082413D01*
X-6272486Y1085093D01*
X-6265006Y1087793D01*
X-6257513Y1090508D01*
X-6250020Y1093233D01*
X-6242537Y1095959D01*
X-6235080Y1098679D01*
X-6227660Y1101389D01*
X-6220289Y1104084D01*
X-6212984Y1106754D01*
X-6205755Y1109395D01*
X-6198616Y1112001D01*
X-6191577Y1114564D01*
X-6184653Y1117079D01*
X-6177859Y1119540D01*
X-6171204Y1121938D01*
X-6164704Y1124272D01*
X-6158369Y1126530D01*
X-6152215Y1128709D01*
X-6146251Y1130805D01*
X-6140495Y1132806D01*
X-6134955Y1134709D01*
X-6129647Y1136507D01*
X-6124582Y1138194D01*
X-6116543Y1140825D01*
X-6108489Y1143429D01*
X-6100434Y1145999D01*
X-6092398Y1148539D01*
X-6084394Y1151049D01*
X-6076442Y1153525D01*
X-6068555Y1155971D01*
X-6060754Y1158384D01*
X-6053053Y1160767D01*
X-6045469Y1163116D01*
X-6038019Y1165433D01*
X-6030722Y1167719D01*
X-6023589Y1169969D01*
X-6016642Y1172187D01*
X-6009896Y1174374D01*
X-6003368Y1176525D01*
X-5997074Y1178643D01*
X-5991031Y1180726D01*
X-5985258Y1182776D01*
X-5979767Y1184790D01*
X-5974577Y1186771D01*
X-5969708Y1188717D01*
X-5965172Y1190630D01*
X-5960986Y1192504D01*
X-5957171Y1194346D01*
X-5953739Y1196149D01*
X-5950709Y1197917D01*
X-5948095Y1199652D01*
X-5945919Y1201348D01*
X-5944194Y1203007D01*
X-5942939Y1204630D01*
X-5942167Y1206218D01*
X-5941982Y1207508D01*
X-5942182Y1209090D01*
X-5942751Y1210955D01*
X-5943678Y1213088D01*
X-5944948Y1215481D01*
X-5946548Y1218120D01*
X-5948466Y1220998D01*
X-5950691Y1224099D01*
X-5953206Y1227416D01*
X-5955997Y1230934D01*
X-5959055Y1234645D01*
X-5962368Y1238537D01*
X-5965916Y1242595D01*
X-5969690Y1246814D01*
X-5973678Y1251178D01*
X-5977864Y1255679D01*
X-5982238Y1260304D01*
X-5986785Y1265041D01*
X-5991491Y1269883D01*
X-5996343Y1274813D01*
X-6001331Y1279824D01*
X-6006439Y1284902D01*
X-6011654Y1290038D01*
X-6016965Y1295219D01*
X-6022355Y1300436D01*
X-6027816Y1305676D01*
X-6033330Y1310929D01*
X-6038885Y1316182D01*
X-6044471Y1321427D01*
X-6050071Y1326649D01*
X-6055674Y1331838D01*
X-6061268Y1336984D01*
X-6066838Y1342077D01*
X-6072370Y1347101D01*
X-6077851Y1352049D01*
X-6083269Y1356908D01*
X-6088613Y1361668D01*
X-6093866Y1366319D01*
X-6099017Y1370845D01*
X-6104051Y1375239D01*
X-6108956Y1379489D01*
X-6113721Y1383581D01*
X-6118331Y1387508D01*
X-6122771Y1391257D01*
X-6127623Y1395348D01*
X-6132591Y1399578D01*
X-6137671Y1403924D01*
X-6142852Y1408379D01*
X-6148130Y1412928D01*
X-6153492Y1417556D01*
X-6158931Y1422250D01*
X-6164437Y1426997D01*
X-6170005Y1431785D01*
X-6175623Y1436596D01*
X-6181285Y1441422D01*
X-6186982Y1446245D01*
X-6192705Y1451056D01*
X-6198448Y1455836D01*
X-6204198Y1460576D01*
X-6209949Y1465259D01*
X-6215694Y1469875D01*
X-6221422Y1474406D01*
X-6227127Y1478843D01*
X-6232796Y1483172D01*
X-6238427Y1487378D01*
X-6244008Y1491447D01*
X-6249530Y1495364D01*
X-6254986Y1499120D01*
X-6260368Y1502699D01*
X-6265664Y1506085D01*
X-6270871Y1509270D01*
X-6275976Y1512237D01*
X-6280972Y1514970D01*
X-6285852Y1517462D01*
X-6290607Y1519694D01*
X-6295227Y1521655D01*
X-6299702Y1523331D01*
X-6304031Y1524708D01*
X-6308196Y1525772D01*
X-6312197Y1526512D01*
X-6316019Y1526913D01*
X-6319657Y1526961D01*
X-6323103Y1526641D01*
X-6326347Y1525943D01*
X-6326347Y1525943D01*
G37*
G36*
X-3488588Y998616D02*
G01*
X-3491390Y997364D01*
X-3494686Y995867D01*
X-3498456Y994138D01*
X-3502667Y992184D01*
X-3507295Y990020D01*
X-3512314Y987653D01*
X-3517699Y985098D01*
X-3523419Y982367D01*
X-3529449Y979467D01*
X-3535766Y976414D01*
X-3542339Y973213D01*
X-3549144Y969883D01*
X-3556154Y966431D01*
X-3563343Y962868D01*
X-3570681Y959205D01*
X-3578146Y955456D01*
X-3585707Y951631D01*
X-3593343Y947737D01*
X-3601024Y943792D01*
X-3608722Y939805D01*
X-3616413Y935786D01*
X-3624069Y931745D01*
X-3631666Y927699D01*
X-3639174Y923653D01*
X-3646571Y919619D01*
X-3653825Y915614D01*
X-3660912Y911641D01*
X-3667805Y907719D01*
X-3674478Y903853D01*
X-3680907Y900059D01*
X-3687058Y896345D01*
X-3692913Y892726D01*
X-3698440Y889208D01*
X-3703617Y885807D01*
X-3708412Y882530D01*
X-3712801Y879393D01*
X-3716756Y876404D01*
X-3720254Y873574D01*
X-3723266Y870917D01*
X-3725768Y868441D01*
X-3727729Y866160D01*
X-3729123Y864085D01*
X-3729929Y862225D01*
X-3730114Y860595D01*
X-3729743Y858834D01*
X-3728930Y856889D01*
X-3727696Y854765D01*
X-3726055Y852472D01*
X-3724026Y850018D01*
X-3721623Y847407D01*
X-3718869Y844651D01*
X-3715776Y841755D01*
X-3712364Y838730D01*
X-3708651Y835578D01*
X-3704653Y832314D01*
X-3700386Y828939D01*
X-3695870Y825464D01*
X-3691120Y821895D01*
X-3686154Y818243D01*
X-3680990Y814511D01*
X-3675646Y810712D01*
X-3670137Y806848D01*
X-3664483Y802932D01*
X-3658699Y798969D01*
X-3652801Y794966D01*
X-3646810Y790933D01*
X-3640742Y786876D01*
X-3634613Y782805D01*
X-3628443Y778723D01*
X-3622245Y774641D01*
X-3616040Y770567D01*
X-3609845Y766508D01*
X-3603675Y762472D01*
X-3597549Y758464D01*
X-3591483Y754496D01*
X-3585497Y750575D01*
X-3579606Y746704D01*
X-3573828Y742896D01*
X-3568179Y739157D01*
X-3562677Y735495D01*
X-3557341Y731916D01*
X-3552187Y728431D01*
X-3547231Y725043D01*
X-3542494Y721763D01*
X-3538496Y718967D01*
X-3534222Y715957D01*
X-3529685Y712749D01*
X-3524900Y709353D01*
X-3519883Y705779D01*
X-3514646Y702045D01*
X-3509205Y698162D01*
X-3503574Y694138D01*
X-3497770Y689990D01*
X-3491806Y685728D01*
X-3485697Y681367D01*
X-3479459Y676917D01*
X-3473104Y672391D01*
X-3466650Y667801D01*
X-3460107Y663160D01*
X-3453495Y658482D01*
X-3446825Y653775D01*
X-3440112Y649056D01*
X-3433373Y644337D01*
X-3426622Y639627D01*
X-3419871Y634941D01*
X-3413140Y630293D01*
X-3406437Y625690D01*
X-3399782Y621151D01*
X-3393188Y616684D01*
X-3386670Y612302D01*
X-3380242Y608020D01*
X-3373920Y603846D01*
X-3367717Y599798D01*
X-3361649Y595881D01*
X-3355728Y592114D01*
X-3349972Y588507D01*
X-3344397Y585073D01*
X-3339012Y581825D01*
X-3333836Y578774D01*
X-3328885Y575932D01*
X-3324169Y573313D01*
X-3319706Y570928D01*
X-3315510Y568789D01*
X-3311596Y566912D01*
X-3307976Y565307D01*
X-3304669Y563984D01*
X-3301690Y562960D01*
X-3299048Y562244D01*
X-3296762Y561850D01*
X-3294847Y561789D01*
X-3293315Y562076D01*
X-3292182Y562721D01*
X-3291080Y564001D01*
X-3289998Y565835D01*
X-3288936Y568203D01*
X-3287895Y571080D01*
X-3286876Y574441D01*
X-3285878Y578266D01*
X-3284900Y582531D01*
X-3283943Y587209D01*
X-3283008Y592284D01*
X-3282091Y597728D01*
X-3281197Y603519D01*
X-3280326Y609633D01*
X-3279472Y616046D01*
X-3278642Y622739D01*
X-3277834Y629686D01*
X-3277044Y636864D01*
X-3276277Y644250D01*
X-3275533Y651819D01*
X-3274809Y659554D01*
X-3274105Y667425D01*
X-3273425Y675411D01*
X-3272764Y683491D01*
X-3272124Y691639D01*
X-3271507Y699836D01*
X-3270912Y708052D01*
X-3270338Y716272D01*
X-3269785Y724466D01*
X-3269254Y732614D01*
X-3268743Y740691D01*
X-3268258Y748677D01*
X-3267791Y756549D01*
X-3267346Y764278D01*
X-3266925Y771847D01*
X-3266523Y779231D01*
X-3266145Y786406D01*
X-3265789Y793351D01*
X-3265454Y800041D01*
X-3265142Y806452D01*
X-3264852Y812563D01*
X-3264583Y818349D01*
X-3264400Y821938D01*
X-3264164Y826018D01*
X-3263877Y830567D01*
X-3263544Y835550D01*
X-3263173Y840948D01*
X-3262769Y846726D01*
X-3262337Y852863D01*
X-3261885Y859325D01*
X-3261415Y866089D01*
X-3260935Y873127D01*
X-3260450Y880409D01*
X-3259963Y887910D01*
X-3259482Y895601D01*
X-3259015Y903455D01*
X-3258563Y911443D01*
X-3258134Y919540D01*
X-3257732Y927717D01*
X-3257364Y935949D01*
X-3257036Y944204D01*
X-3256752Y952456D01*
X-3256521Y960681D01*
X-3256343Y968844D01*
X-3256226Y976927D01*
X-3256178Y984895D01*
X-3256201Y992723D01*
X-3256302Y1000386D01*
X-3256488Y1007851D01*
X-3256762Y1015095D01*
X-3257133Y1022088D01*
X-3257603Y1028804D01*
X-3258179Y1035215D01*
X-3258865Y1041293D01*
X-3259670Y1047010D01*
X-3260598Y1052339D01*
X-3261654Y1057254D01*
X-3262843Y1061725D01*
X-3264171Y1065725D01*
X-3265644Y1069228D01*
X-3267268Y1072205D01*
X-3269048Y1074630D01*
X-3271154Y1076553D01*
X-3273729Y1078057D01*
X-3276757Y1079159D01*
X-3280211Y1079878D01*
X-3284067Y1080228D01*
X-3288304Y1080231D01*
X-3292894Y1079903D01*
X-3297814Y1079261D01*
X-3303043Y1078323D01*
X-3308555Y1077107D01*
X-3314329Y1075629D01*
X-3320338Y1073909D01*
X-3326561Y1071963D01*
X-3332975Y1069809D01*
X-3339553Y1067468D01*
X-3346272Y1064950D01*
X-3353109Y1062278D01*
X-3360044Y1059472D01*
X-3367046Y1056543D01*
X-3374097Y1053513D01*
X-3381174Y1050399D01*
X-3388248Y1047216D01*
X-3395299Y1043985D01*
X-3402302Y1040724D01*
X-3409233Y1037447D01*
X-3416071Y1034176D01*
X-3422789Y1030925D01*
X-3429368Y1027711D01*
X-3435779Y1024557D01*
X-3441999Y1021473D01*
X-3448009Y1018484D01*
X-3453780Y1015603D01*
X-3459292Y1012850D01*
X-3464519Y1010241D01*
X-3469436Y1007795D01*
X-3474024Y1005530D01*
X-3478258Y1003462D01*
X-3482111Y1001608D01*
X-3485560Y999987D01*
X-3488585Y998616D01*
X-3488588Y998616D01*
G37*
D11*
G01*
X-5177025Y-921164D03*
D12*
G01*
X-4933231Y-1369207D03*
D13*
G01*
X-5318780Y-1254526D03*
G01*
X-5051539Y-1118687D03*
D11*
G01*
X-5156192Y-1393515D03*
M02*
