G04 Layer: TopSolderMaskLayer*
G04 EasyEDA v6.5.22, 2023-01-18 18:11:45*
G04 3f45770606e946e99412526f685ae31c,41bbaa2022c14ae6819927e2b53804d3,10*
G04 Gerber Generator version 0.2*
G04 Scale: 100 percent, Rotated: No, Reflected: No *
G04 Dimensions in millimeters *
G04 leading zeros omitted , absolute positions ,4 integer and 5 decimal *
%FSLAX45Y45*%
%MOMM*%

%ADD10C,6.8000*%
%ADD11C,1.0000*%
%ADD12C,1.2000*%
%ADD13C,1.5000*%

%LPD*%
G36*
X-4714951Y2271979D02*
G01*
X-4720793Y2271522D01*
X-4726381Y2270709D01*
X-4731867Y2269540D01*
X-4737150Y2268016D01*
X-4742281Y2266188D01*
X-4747260Y2264003D01*
X-4752086Y2261565D01*
X-4756759Y2258822D01*
X-4761331Y2255824D01*
X-4770018Y2249119D01*
X-4778248Y2241600D01*
X-4786020Y2233320D01*
X-4793437Y2224532D01*
X-4800447Y2215286D01*
X-4807204Y2205786D01*
X-4813655Y2196134D01*
X-4837633Y2158644D01*
X-4852924Y2130755D01*
X-4867808Y2102662D01*
X-4879441Y2080056D01*
X-4904841Y2028850D01*
X-4918506Y2000148D01*
X-4937150Y1959813D01*
X-4952796Y1925015D01*
X-4978044Y1866696D01*
X-5000193Y1813915D01*
X-5031282Y1737309D01*
X-5103672Y1554022D01*
X-5155844Y1413814D01*
X-5175148Y1361135D01*
X-5185613Y1331772D01*
X-5197906Y1296416D01*
X-5209844Y1261008D01*
X-5221325Y1225397D01*
X-5235752Y1177747D01*
X-5247487Y1135735D01*
X-5253736Y1111605D01*
X-5259628Y1087424D01*
X-5266486Y1056995D01*
X-5269636Y1045514D01*
X-5271871Y1033780D01*
X-5273192Y1021943D01*
X-5273548Y1010056D01*
X-5273395Y1004163D01*
X-5272989Y998321D01*
X-5271465Y986739D01*
X-5270296Y981100D01*
X-5267248Y970026D01*
X-5263184Y959459D01*
X-5260746Y954379D01*
X-5258054Y949452D01*
X-5255056Y944676D01*
X-5251856Y940104D01*
X-5248351Y935736D01*
X-5244592Y931570D01*
X-5240528Y927608D01*
X-5236210Y923899D01*
X-5231587Y920445D01*
X-5226710Y917244D01*
X-5221528Y914349D01*
X-5216042Y911707D01*
X-5210302Y909370D01*
X-5204256Y907389D01*
X-5197906Y905713D01*
X-5174742Y896823D01*
X-5151374Y888695D01*
X-5127752Y881227D01*
X-5103977Y874471D01*
X-5074005Y866952D01*
X-5061966Y864209D01*
X-5037785Y859231D01*
X-5013452Y854811D01*
X-4988966Y851001D01*
X-4970576Y848512D01*
X-4939792Y845007D01*
X-4915103Y842822D01*
X-4884166Y840740D01*
X-4859375Y839622D01*
X-4834534Y838962D01*
X-4809744Y838708D01*
X-4791151Y838809D01*
X-4766360Y839266D01*
X-4729276Y840689D01*
X-4686198Y843229D01*
X-4631436Y849376D01*
X-4607052Y852525D01*
X-4576622Y857097D01*
X-4558487Y860348D01*
X-4534509Y865327D01*
X-4522571Y868171D01*
X-4510735Y871270D01*
X-4499000Y874623D01*
X-4487316Y878281D01*
X-4469993Y884377D01*
X-4458614Y888847D01*
X-4447336Y893673D01*
X-4442663Y897483D01*
X-4438446Y901496D01*
X-4434535Y905713D01*
X-4431030Y910132D01*
X-4427829Y914653D01*
X-4424934Y919378D01*
X-4422394Y924204D01*
X-4420108Y929182D01*
X-4418076Y934313D01*
X-4416348Y939546D01*
X-4413605Y950264D01*
X-4412538Y955802D01*
X-4411065Y967079D01*
X-4410202Y978560D01*
X-4409948Y990244D01*
X-4410100Y1001979D01*
X-4411167Y1025398D01*
X-4412538Y1048308D01*
X-4413097Y1064717D01*
X-4420006Y1128217D01*
X-4427728Y1191615D01*
X-4435297Y1248613D01*
X-4442460Y1299210D01*
X-4451045Y1356055D01*
X-4462170Y1425397D01*
X-4477258Y1513586D01*
X-4488535Y1576425D01*
X-4500219Y1639265D01*
X-4520793Y1745894D01*
X-4545888Y1871116D01*
X-4559655Y1931974D01*
X-4570374Y1980895D01*
X-4580128Y2023668D01*
X-4586071Y2048002D01*
X-4590745Y2066188D01*
X-4600803Y2102307D01*
X-4606290Y2120239D01*
X-4614113Y2143912D01*
X-4622647Y2167382D01*
X-4631944Y2190546D01*
X-4636871Y2201976D01*
X-4644745Y2219045D01*
X-4650282Y2230272D01*
X-4653483Y2235657D01*
X-4656988Y2240889D01*
X-4660849Y2245918D01*
X-4665014Y2250744D01*
X-4669485Y2255164D01*
X-4674260Y2259228D01*
X-4679340Y2262835D01*
X-4684725Y2265984D01*
X-4690364Y2268474D01*
X-4696307Y2270404D01*
X-4702505Y2271572D01*
X-4709007Y2271979D01*
G37*
G36*
X-5218176Y-782320D02*
G01*
X-5357114Y-1033932D01*
X-5495645Y-1289456D01*
X-5548731Y-1386738D01*
X-5562142Y-1414983D01*
X-5449773Y-1450594D01*
X-5356098Y-1476349D01*
X-5236362Y-1501343D01*
X-5149748Y-1510995D01*
X-5083708Y-1512417D01*
X-5001412Y-1509420D01*
X-4934712Y-1504391D01*
X-4826050Y-1490319D01*
X-4716780Y-1474470D01*
X-4957114Y-972769D01*
X-5030673Y-814222D01*
G37*
G36*
X-4695799Y-1514703D02*
G01*
X-4743856Y-1523492D01*
X-4795824Y-1531264D01*
X-4882743Y-1543253D01*
X-4859578Y-1555242D01*
X-4836210Y-1572006D01*
X-4815281Y-1591614D01*
X-4800650Y-1607769D01*
X-4789373Y-1623009D01*
X-4751984Y-1617929D01*
X-4716576Y-1610461D01*
X-4695647Y-1604264D01*
X-4677613Y-1597710D01*
X-4668316Y-1592427D01*
X-4667656Y-1590852D01*
X-4667605Y-1589278D01*
X-4668520Y-1580438D01*
X-4673142Y-1567586D01*
X-4681118Y-1547469D01*
G37*
G36*
X-5584952Y-1455267D02*
G01*
X-5586730Y-1459382D01*
X-5595213Y-1482953D01*
X-5596839Y-1489354D01*
X-5598363Y-1497584D01*
X-5596432Y-1503121D01*
X-5594146Y-1507642D01*
X-5589219Y-1514398D01*
X-5580735Y-1521815D01*
X-5568594Y-1529588D01*
X-5545734Y-1541322D01*
X-5511546Y-1555292D01*
X-5499709Y-1545183D01*
X-5487365Y-1536039D01*
X-5477408Y-1529689D01*
X-5467959Y-1524254D01*
X-5452262Y-1516786D01*
X-5436514Y-1511147D01*
X-5422900Y-1507490D01*
X-5416905Y-1506220D01*
X-5500928Y-1482445D01*
G37*
G36*
X-5311546Y-1532026D02*
G01*
X-5303723Y-1537868D01*
X-5287213Y-1553260D01*
X-5277408Y-1564894D01*
X-5267452Y-1577390D01*
X-5256733Y-1595526D01*
X-5247843Y-1613865D01*
X-5244033Y-1625092D01*
X-5206847Y-1630730D01*
X-5154980Y-1637080D01*
X-5118455Y-1639468D01*
X-5092344Y-1640535D01*
X-5085334Y-1623110D01*
X-5076698Y-1608124D01*
X-5065268Y-1591614D01*
X-5054600Y-1578406D01*
X-5041138Y-1566722D01*
X-5030470Y-1558594D01*
X-5026914Y-1556308D01*
X-5073650Y-1557324D01*
X-5130800Y-1556816D01*
X-5176520Y-1553260D01*
X-5229860Y-1547164D01*
X-5256733Y-1542389D01*
G37*
D10*
G01*
X-3859992Y-900998D03*
G01*
X-6354986Y-580999D03*
G36*
X-6422644Y1020571D02*
G01*
X-6424930Y1020826D01*
X-6426708Y1021079D01*
X-6429756Y1021842D01*
X-6431280Y1022095D01*
X-6431310Y1022256D01*
X-6432326Y1022510D01*
X-6433088Y1022764D01*
X-6434104Y1023272D01*
X-6434866Y1023780D01*
X-6435882Y1024288D01*
X-6435852Y1024128D01*
X-6436868Y1024889D01*
X-6436956Y1024940D01*
X-6437972Y1025702D01*
X-6439242Y1026464D01*
X-6442036Y1029258D01*
X-6441948Y1029207D01*
X-6442964Y1030223D01*
X-6442910Y1030317D01*
X-6444942Y1033365D01*
X-6445450Y1034381D01*
X-6445504Y1034287D01*
X-6446266Y1035812D01*
X-6447282Y1038605D01*
X-6448298Y1042670D01*
X-6448806Y1044955D01*
X-6449060Y1046479D01*
X-6449568Y1049273D01*
X-6449568Y1050289D01*
X-6449822Y1053592D01*
X-6449822Y1054354D01*
X-6450076Y1057910D01*
X-6450076Y1062989D01*
X-6449822Y1067307D01*
X-6449822Y1067815D01*
X-6449568Y1072387D01*
X-6449568Y1072895D01*
X-6449314Y1077721D01*
X-6449314Y1077976D01*
X-6449060Y1083310D01*
X-6449060Y1083563D01*
X-6448552Y1089152D01*
X-6448552Y1089405D01*
X-6448044Y1095247D01*
X-6447790Y1095502D01*
X-6447282Y1101597D01*
X-6446520Y1107947D01*
X-6446520Y1108202D01*
X-6445758Y1114805D01*
X-6444996Y1121663D01*
X-6444742Y1121663D01*
X-6443980Y1128776D01*
X-6442964Y1135887D01*
X-6442964Y1136142D01*
X-6441948Y1143254D01*
X-6441948Y1143507D01*
X-6440932Y1150873D01*
X-6440678Y1150873D01*
X-6439662Y1158494D01*
X-6438392Y1166113D01*
X-6437376Y1173987D01*
X-6434836Y1189736D01*
X-6433312Y1197610D01*
X-6432042Y1205484D01*
X-6432042Y1205737D01*
X-6429502Y1221486D01*
X-6427978Y1229360D01*
X-6426708Y1237234D01*
X-6425184Y1245107D01*
X-6422644Y1260347D01*
X-6421120Y1267968D01*
X-6419850Y1275334D01*
X-6417310Y1289557D01*
X-6416040Y1296415D01*
X-6413500Y1309623D01*
X-6411468Y1321815D01*
X-6410198Y1327404D01*
X-6409436Y1332992D01*
X-6408420Y1338071D01*
X-6407150Y1344676D01*
X-6406134Y1351534D01*
X-6404864Y1358137D01*
X-6401816Y1378712D01*
X-6400546Y1385823D01*
X-6399530Y1392681D01*
X-6398514Y1399794D01*
X-6397498Y1406652D01*
X-6396228Y1413510D01*
X-6396228Y1413763D01*
X-6395212Y1420368D01*
X-6395212Y1420621D01*
X-6393942Y1427226D01*
X-6393942Y1427479D01*
X-6392672Y1434084D01*
X-6392672Y1434337D01*
X-6391402Y1440687D01*
X-6391402Y1440942D01*
X-6390132Y1447292D01*
X-6390132Y1447545D01*
X-6388862Y1453895D01*
X-6388608Y1454150D01*
X-6387338Y1460245D01*
X-6387338Y1460500D01*
X-6385814Y1466595D01*
X-6385560Y1466850D01*
X-6384036Y1472692D01*
X-6384036Y1473200D01*
X-6382512Y1478787D01*
X-6382258Y1479042D01*
X-6380734Y1484629D01*
X-6380480Y1485137D01*
X-6378702Y1490218D01*
X-6378448Y1490979D01*
X-6376670Y1495805D01*
X-6376416Y1496568D01*
X-6374384Y1501139D01*
X-6374130Y1501902D01*
X-6372098Y1506473D01*
X-6371590Y1507236D01*
X-6369558Y1511554D01*
X-6369050Y1512315D01*
X-6366764Y1516379D01*
X-6366002Y1517142D01*
X-6363716Y1520952D01*
X-6362954Y1521968D01*
X-6360414Y1525270D01*
X-6359398Y1526539D01*
X-6356858Y1529334D01*
X-6351524Y1534668D01*
X-6348476Y1536954D01*
X-6346698Y1537970D01*
X-6343650Y1540002D01*
X-6341872Y1541018D01*
X-6338570Y1542795D01*
X-6336284Y1543557D01*
X-6332982Y1544828D01*
X-6330442Y1545589D01*
X-6327394Y1546097D01*
X-6324854Y1546605D01*
X-6321552Y1546860D01*
X-6313932Y1546860D01*
X-6310122Y1546352D01*
X-6308598Y1546097D01*
X-6304534Y1545336D01*
X-6303264Y1545081D01*
X-6299200Y1544065D01*
X-6297930Y1543812D01*
X-6293612Y1542287D01*
X-6292596Y1542034D01*
X-6288278Y1540510D01*
X-6287516Y1540002D01*
X-6282690Y1538223D01*
X-6282182Y1537715D01*
X-6277356Y1535684D01*
X-6276848Y1535176D01*
X-6271768Y1532889D01*
X-6271260Y1532636D01*
X-6266434Y1529842D01*
X-6265926Y1529587D01*
X-6260846Y1526539D01*
X-6260338Y1526286D01*
X-6255258Y1523237D01*
X-6255004Y1522984D01*
X-6249670Y1519428D01*
X-6249416Y1519428D01*
X-6243828Y1515871D01*
X-6243574Y1515618D01*
X-6238240Y1511807D01*
X-6237986Y1511554D01*
X-6232398Y1507744D01*
X-6232144Y1507489D01*
X-6226556Y1503426D01*
X-6214872Y1494789D01*
X-6214872Y1494536D01*
X-6209030Y1490218D01*
X-6203188Y1485645D01*
X-6203188Y1485392D01*
X-6197346Y1480820D01*
X-6179820Y1466342D01*
X-6174232Y1461515D01*
X-6173978Y1461515D01*
X-6168390Y1456689D01*
X-6162548Y1451863D01*
X-6145784Y1437386D01*
X-6140450Y1432813D01*
X-6135116Y1427987D01*
X-6129782Y1423415D01*
X-6129782Y1423670D01*
X-6124702Y1419097D01*
X-6114796Y1410715D01*
X-6109970Y1406652D01*
X-6105398Y1402842D01*
X-6100826Y1398778D01*
X-6100572Y1398778D01*
X-6096000Y1394713D01*
X-6095746Y1394713D01*
X-6090920Y1390395D01*
X-6080760Y1381252D01*
X-6080506Y1381252D01*
X-6075426Y1376679D01*
X-6070092Y1371854D01*
X-6069838Y1371854D01*
X-6064504Y1367028D01*
X-6064504Y1366773D01*
X-6058916Y1361947D01*
X-6047740Y1351787D01*
X-6042152Y1346454D01*
X-6036564Y1341373D01*
X-6036310Y1341373D01*
X-6013958Y1320037D01*
X-6008624Y1314957D01*
X-6008370Y1314704D01*
X-6003036Y1309623D01*
X-5997702Y1304289D01*
X-5992368Y1299210D01*
X-5982208Y1289050D01*
X-5982208Y1288795D01*
X-5977128Y1283970D01*
X-5977128Y1283715D01*
X-5972556Y1278889D01*
X-5972302Y1278889D01*
X-5967730Y1274063D01*
X-5963412Y1269492D01*
X-5963158Y1269237D01*
X-5959094Y1264920D01*
X-5958840Y1264665D01*
X-5955030Y1260347D01*
X-5954776Y1260094D01*
X-5950966Y1256029D01*
X-5950966Y1255776D01*
X-5947410Y1251712D01*
X-5947156Y1251457D01*
X-5943854Y1247647D01*
X-5943600Y1247394D01*
X-5940552Y1243584D01*
X-5940298Y1243329D01*
X-5937504Y1239773D01*
X-5937250Y1239520D01*
X-5934710Y1236218D01*
X-5934456Y1235710D01*
X-5932170Y1232662D01*
X-5931916Y1232154D01*
X-5929884Y1229105D01*
X-5929376Y1228597D01*
X-5927852Y1225804D01*
X-5927344Y1224787D01*
X-5926074Y1222502D01*
X-5924296Y1218945D01*
X-5923534Y1216913D01*
X-5923026Y1214881D01*
X-5922264Y1211579D01*
X-5922264Y1210055D01*
X-5922170Y1210048D01*
X-5921916Y1209032D01*
X-5921916Y1206746D01*
X-5922170Y1205730D01*
X-5922170Y1204714D01*
X-5922264Y1204721D01*
X-5922264Y1203452D01*
X-5922355Y1203424D01*
X-5922863Y1200884D01*
X-5923117Y1199868D01*
X-5923625Y1198598D01*
X-5924133Y1197582D01*
X-5924296Y1197355D01*
X-5925058Y1195831D01*
X-5924905Y1195994D01*
X-5925413Y1195232D01*
X-5925667Y1194470D01*
X-5926683Y1192946D01*
X-5927191Y1192438D01*
X-5927090Y1192276D01*
X-5928360Y1190752D01*
X-5930392Y1188465D01*
X-5932170Y1186942D01*
X-5933694Y1185671D01*
X-5935726Y1183894D01*
X-5936996Y1182878D01*
X-5939536Y1181354D01*
X-5940552Y1180592D01*
X-5943600Y1178813D01*
X-5944362Y1178560D01*
X-5947918Y1176528D01*
X-5948426Y1176273D01*
X-5952236Y1174495D01*
X-5952744Y1174242D01*
X-5957062Y1172463D01*
X-5957316Y1172210D01*
X-5961888Y1170178D01*
X-5962396Y1170178D01*
X-5967222Y1168145D01*
X-5967476Y1168145D01*
X-5972556Y1166113D01*
X-5972810Y1166113D01*
X-5978398Y1164081D01*
X-5978652Y1163828D01*
X-5984240Y1161795D01*
X-5984494Y1161795D01*
X-5990590Y1159763D01*
X-5996940Y1157478D01*
X-5997194Y1157478D01*
X-6003544Y1155445D01*
X-6003798Y1155445D01*
X-6010402Y1153160D01*
X-6010656Y1153160D01*
X-6017514Y1150873D01*
X-6024626Y1148587D01*
X-6031992Y1146302D01*
X-6047232Y1141729D01*
X-6054852Y1139189D01*
X-6062726Y1136904D01*
X-6070600Y1134363D01*
X-6078474Y1132078D01*
X-6086348Y1129537D01*
X-6094476Y1126997D01*
X-6110224Y1121918D01*
X-6118352Y1119123D01*
X-6123178Y1117600D01*
X-6128512Y1115821D01*
X-6133846Y1113789D01*
X-6139688Y1112012D01*
X-6145530Y1109726D01*
X-6152215Y1128709D01*
X-6145530Y1109979D01*
X-6151626Y1107694D01*
X-6164326Y1103121D01*
X-6170930Y1100836D01*
X-6184646Y1095755D01*
X-6198870Y1090676D01*
X-6206236Y1087881D01*
X-6213348Y1085342D01*
X-6220714Y1082547D01*
X-6228334Y1080007D01*
X-6243066Y1074420D01*
X-6250686Y1071626D01*
X-6258306Y1069086D01*
X-6265672Y1066292D01*
X-6273292Y1063497D01*
X-6288024Y1058418D01*
X-6288024Y1058163D01*
X-6295390Y1055623D01*
X-6302502Y1053084D01*
X-6302756Y1053084D01*
X-6309868Y1050544D01*
X-6316726Y1048257D01*
X-6316980Y1048257D01*
X-6323838Y1045718D01*
X-6330696Y1043431D01*
X-6337300Y1041400D01*
X-6337554Y1041145D01*
X-6350254Y1037081D01*
X-6350508Y1037081D01*
X-6356604Y1035050D01*
X-6362700Y1033271D01*
X-6368542Y1031494D01*
X-6374130Y1029715D01*
X-6374384Y1029715D01*
X-6379464Y1028192D01*
X-6379718Y1028192D01*
X-6384798Y1026921D01*
X-6385052Y1026668D01*
X-6389878Y1025397D01*
X-6390132Y1025397D01*
X-6394704Y1024381D01*
X-6394958Y1024381D01*
X-6399276Y1023365D01*
X-6399530Y1023365D01*
X-6403594Y1022350D01*
X-6404102Y1022350D01*
X-6407658Y1021842D01*
X-6408166Y1021587D01*
X-6411468Y1021079D01*
X-6412230Y1021079D01*
X-6415278Y1020826D01*
X-6416294Y1020571D01*
G37*
G36*
X-3295609Y541723D02*
G01*
X-3295396Y541781D01*
X-3297428Y541781D01*
X-3300222Y542036D01*
X-3302508Y542544D01*
X-3304286Y543052D01*
X-3306826Y543560D01*
X-3308096Y544068D01*
X-3311144Y545084D01*
X-3312160Y545337D01*
X-3315462Y546862D01*
X-3315970Y547115D01*
X-3319780Y548639D01*
X-3320288Y548894D01*
X-3324098Y550671D01*
X-3324606Y550926D01*
X-3328670Y553212D01*
X-3329178Y553212D01*
X-3333496Y555752D01*
X-3334004Y555752D01*
X-3338576Y558545D01*
X-3338830Y558545D01*
X-3343910Y561339D01*
X-3343910Y561594D01*
X-3349244Y564642D01*
X-3354832Y567944D01*
X-3360420Y571500D01*
X-3360674Y571500D01*
X-3366262Y575055D01*
X-3366516Y575310D01*
X-3372358Y579120D01*
X-3372612Y579120D01*
X-3378454Y582929D01*
X-3378708Y582929D01*
X-3384804Y586994D01*
X-3385058Y587247D01*
X-3391154Y591312D01*
X-3391408Y591312D01*
X-3397758Y595629D01*
X-3404362Y600202D01*
X-3410966Y604520D01*
X-3417824Y609092D01*
X-3424428Y613918D01*
X-3431286Y618489D01*
X-3438144Y623315D01*
X-3444748Y627887D01*
X-3451606Y632713D01*
X-3458210Y637539D01*
X-3458464Y637539D01*
X-3465068Y642112D01*
X-3471672Y646937D01*
X-3478276Y651510D01*
X-3490976Y660654D01*
X-3497326Y664971D01*
X-3503422Y669544D01*
X-3509518Y673607D01*
X-3515106Y677926D01*
X-3520948Y681989D01*
X-3531616Y689610D01*
X-3536442Y693165D01*
X-3541268Y696468D01*
X-3545840Y699515D01*
X-3549904Y702563D01*
X-3553968Y705357D01*
X-3558540Y708660D01*
X-3563366Y711962D01*
X-3568446Y715263D01*
X-3579114Y722376D01*
X-3584956Y726186D01*
X-3590544Y729995D01*
X-3596386Y733805D01*
X-3602482Y737870D01*
X-3608578Y741679D01*
X-3620770Y749807D01*
X-3627120Y753871D01*
X-3633216Y757936D01*
X-3639566Y762000D01*
X-3657854Y774192D01*
X-3657854Y774445D01*
X-3663950Y778255D01*
X-3663950Y778510D01*
X-3670046Y782320D01*
X-3670046Y782573D01*
X-3675888Y786384D01*
X-3681476Y790447D01*
X-3681730Y790447D01*
X-3687064Y794257D01*
X-3687318Y794512D01*
X-3697986Y802131D01*
X-3703066Y805687D01*
X-3703066Y805942D01*
X-3707892Y809497D01*
X-3708146Y809497D01*
X-3712464Y813054D01*
X-3712718Y813307D01*
X-3717036Y816610D01*
X-3717290Y816863D01*
X-3721354Y820165D01*
X-3721608Y820420D01*
X-3725418Y823468D01*
X-3725672Y823721D01*
X-3728974Y826770D01*
X-3729482Y827278D01*
X-3732530Y830071D01*
X-3736340Y833881D01*
X-3738626Y836421D01*
X-3739388Y837184D01*
X-3741420Y839723D01*
X-3742436Y840739D01*
X-3743960Y843026D01*
X-3744976Y844804D01*
X-3746246Y846836D01*
X-3747262Y849121D01*
X-3748278Y851154D01*
X-3748285Y851214D01*
X-3748539Y851722D01*
X-3749047Y853246D01*
X-3749047Y854008D01*
X-3749301Y854770D01*
X-3749294Y854710D01*
X-3749802Y856487D01*
X-3749672Y856531D01*
X-3749926Y857801D01*
X-3749926Y859071D01*
X-3750180Y860341D01*
X-3750180Y861611D01*
X-3749926Y862881D01*
X-3750056Y862837D01*
X-3749802Y864362D01*
X-3749741Y864511D01*
X-3749741Y865781D01*
X-3749487Y866797D01*
X-3748979Y868067D01*
X-3748725Y869083D01*
X-3748217Y870099D01*
X-3748278Y870204D01*
X-3747516Y871981D01*
X-3747411Y871959D01*
X-3747157Y872721D01*
X-3746903Y873229D01*
X-3746395Y873991D01*
X-3746141Y874499D01*
X-3745633Y875261D01*
X-3745738Y875284D01*
X-3744214Y877315D01*
X-3742944Y879094D01*
X-3740912Y881379D01*
X-3739896Y882650D01*
X-3736594Y885952D01*
X-3733546Y888492D01*
X-3732784Y889000D01*
X-3729228Y892047D01*
X-3728720Y892302D01*
X-3724910Y895350D01*
X-3724402Y895604D01*
X-3720084Y898905D01*
X-3719576Y899160D01*
X-3715004Y902207D01*
X-3714496Y902462D01*
X-3709416Y906018D01*
X-3709162Y906018D01*
X-3703574Y909573D01*
X-3703320Y909828D01*
X-3697478Y913384D01*
X-3691128Y917194D01*
X-3684524Y921004D01*
X-3684524Y921257D01*
X-3677920Y925068D01*
X-3677666Y925068D01*
X-3670808Y929131D01*
X-3663696Y932942D01*
X-3663442Y933195D01*
X-3656330Y937005D01*
X-3656076Y937260D01*
X-3648710Y941323D01*
X-3625850Y953515D01*
X-3625596Y953515D01*
X-3617976Y957579D01*
X-3610102Y961644D01*
X-3602482Y965454D01*
X-3594862Y969518D01*
X-3579622Y977137D01*
X-3572256Y980694D01*
X-3565144Y984250D01*
X-3564890Y984250D01*
X-3558032Y987805D01*
X-3551174Y991107D01*
X-3544570Y994410D01*
X-3538220Y997457D01*
X-3532124Y1000505D01*
X-3526282Y1003045D01*
X-3520948Y1005839D01*
X-3515868Y1008126D01*
X-3511042Y1010412D01*
X-3506978Y1012189D01*
X-3506724Y1012189D01*
X-3502914Y1013968D01*
X-3499612Y1015492D01*
X-3499612Y1015745D01*
X-3496818Y1016762D01*
X-3496716Y1016904D01*
X-3496056Y1017015D01*
X-3493770Y1018286D01*
X-3490722Y1019810D01*
X-3490722Y1019555D01*
X-3486912Y1021587D01*
X-3486912Y1021334D01*
X-3482848Y1023620D01*
X-3482848Y1023365D01*
X-3478276Y1025652D01*
X-3473450Y1028192D01*
X-3468116Y1030731D01*
X-3462782Y1033526D01*
X-3456940Y1036320D01*
X-3444748Y1042415D01*
X-3444494Y1042415D01*
X-3438144Y1045718D01*
X-3431540Y1049020D01*
X-3424682Y1052068D01*
X-3424682Y1052321D01*
X-3417824Y1055370D01*
X-3417824Y1055623D01*
X-3410966Y1058926D01*
X-3410712Y1058926D01*
X-3403854Y1062228D01*
X-3403600Y1062228D01*
X-3396488Y1065276D01*
X-3396488Y1065529D01*
X-3389376Y1068578D01*
X-3389122Y1068831D01*
X-3382264Y1071879D01*
X-3382010Y1071879D01*
X-3374898Y1074928D01*
X-3374644Y1074928D01*
X-3367786Y1077976D01*
X-3367532Y1077976D01*
X-3360674Y1080770D01*
X-3360420Y1081023D01*
X-3353562Y1083563D01*
X-3353308Y1083563D01*
X-3346450Y1086104D01*
X-3346196Y1086357D01*
X-3339592Y1088644D01*
X-3339338Y1088644D01*
X-3332988Y1090929D01*
X-3332480Y1090929D01*
X-3326384Y1092962D01*
X-3325876Y1093215D01*
X-3319780Y1094739D01*
X-3319272Y1094994D01*
X-3313430Y1096518D01*
X-3312922Y1096518D01*
X-3307334Y1097787D01*
X-3306572Y1098042D01*
X-3301238Y1099057D01*
X-3300476Y1099057D01*
X-3295396Y1099820D01*
X-3294380Y1099820D01*
X-3289808Y1100073D01*
X-3288284Y1100328D01*
X-3283966Y1100328D01*
X-3282188Y1100073D01*
X-3278378Y1099820D01*
X-3276092Y1099565D01*
X-3272790Y1098804D01*
X-3269996Y1098042D01*
X-3266948Y1096771D01*
X-3266871Y1096853D01*
X-3266109Y1096599D01*
X-3265601Y1096345D01*
X-3264839Y1096091D01*
X-3264331Y1095583D01*
X-3263569Y1095329D01*
X-3263646Y1095247D01*
X-3261106Y1093723D01*
X-3260994Y1093825D01*
X-3260232Y1093317D01*
X-3259724Y1092809D01*
X-3258200Y1091793D01*
X-3257692Y1091285D01*
X-3257550Y1091437D01*
X-3255518Y1089405D01*
X-3255586Y1089362D01*
X-3255078Y1088854D01*
X-3254316Y1088346D01*
X-3253808Y1087584D01*
X-3253300Y1087076D01*
X-3253046Y1086568D01*
X-3252978Y1086357D01*
X-3251200Y1084071D01*
X-3249676Y1081786D01*
X-3248152Y1078737D01*
X-3247136Y1076960D01*
X-3245612Y1073404D01*
X-3245104Y1072134D01*
X-3243834Y1068070D01*
X-3243580Y1066800D01*
X-3242310Y1062481D01*
X-3242056Y1061465D01*
X-3241040Y1056639D01*
X-3240786Y1055878D01*
X-3240024Y1050544D01*
X-3239770Y1049781D01*
X-3239008Y1044194D01*
X-3239008Y1043431D01*
X-3238246Y1037336D01*
X-3238246Y1037081D01*
X-3237738Y1030478D01*
X-3237738Y1030223D01*
X-3237230Y1023365D01*
X-3237230Y1023112D01*
X-3236722Y1016254D01*
X-3236722Y1015745D01*
X-3236468Y1008634D01*
X-3236468Y1008379D01*
X-3236214Y1000760D01*
X-3236214Y976629D01*
X-3236468Y968502D01*
X-3236468Y960120D01*
X-3236722Y951992D01*
X-3236722Y951737D01*
X-3236976Y943610D01*
X-3236976Y943355D01*
X-3237484Y935228D01*
X-3237484Y934973D01*
X-3237738Y926845D01*
X-3238246Y918463D01*
X-3238500Y910336D01*
X-3239008Y902207D01*
X-3239516Y894334D01*
X-3240532Y879094D01*
X-3241040Y871728D01*
X-3241548Y864615D01*
X-3242056Y858012D01*
X-3242310Y851407D01*
X-3242818Y845312D01*
X-3243326Y839470D01*
X-3243580Y834136D01*
X-3243834Y829310D01*
X-3244088Y824737D01*
X-3244342Y820928D01*
X-3244596Y817371D01*
X-3244850Y811529D01*
X-3245104Y805434D01*
X-3245358Y799084D01*
X-3245866Y792226D01*
X-3246120Y785368D01*
X-3246628Y778255D01*
X-3246882Y770636D01*
X-3247390Y763270D01*
X-3247390Y763015D01*
X-3247898Y755395D01*
X-3248406Y747521D01*
X-3248660Y739394D01*
X-3249168Y731265D01*
X-3249422Y731265D01*
X-3250438Y715010D01*
X-3250438Y714755D01*
X-3251454Y698500D01*
X-3251454Y698245D01*
X-3252216Y690118D01*
X-3252724Y681989D01*
X-3252724Y681736D01*
X-3253486Y673862D01*
X-3253486Y673607D01*
X-3255010Y657860D01*
X-3255010Y657605D01*
X-3255518Y649986D01*
X-3256280Y642365D01*
X-3256280Y642112D01*
X-3257042Y634745D01*
X-3258058Y627379D01*
X-3258820Y620521D01*
X-3258820Y620268D01*
X-3259582Y613663D01*
X-3259582Y613410D01*
X-3260598Y607060D01*
X-3260598Y606805D01*
X-3261360Y600710D01*
X-3261360Y600455D01*
X-3262376Y594613D01*
X-3262376Y594360D01*
X-3263392Y589026D01*
X-3263392Y588771D01*
X-3264154Y583692D01*
X-3264408Y583184D01*
X-3265424Y578612D01*
X-3265424Y578104D01*
X-3266440Y573786D01*
X-3266440Y573278D01*
X-3267456Y569468D01*
X-3267710Y568705D01*
X-3268726Y565404D01*
X-3268980Y564387D01*
X-3270250Y561339D01*
X-3271774Y557529D01*
X-3272790Y555752D01*
X-3273806Y553720D01*
X-3273808Y553841D01*
X-3274316Y553333D01*
X-3274570Y552571D01*
X-3275586Y551555D01*
X-3275840Y551047D01*
X-3275838Y550926D01*
X-3277108Y549655D01*
X-3276942Y549767D01*
X-3278974Y547735D01*
X-3279990Y546973D01*
X-3281006Y545957D01*
X-3282276Y545449D01*
X-3282188Y545337D01*
X-3283458Y544576D01*
X-3283409Y544804D01*
X-3284679Y544042D01*
X-3285695Y543534D01*
X-3286965Y543026D01*
X-3289505Y542518D01*
X-3289554Y542544D01*
X-3291078Y542036D01*
X-3291037Y542231D01*
X-3292053Y541977D01*
X-3292815Y541977D01*
X-3293831Y541723D01*
G37*
D11*
G01*
X-5177025Y-921164D03*
D12*
G01*
X-4933231Y-1369207D03*
D13*
G01*
X-5318780Y-1254526D03*
G01*
X-5051539Y-1118687D03*
D11*
G01*
X-5156192Y-1393515D03*
M02*
