G04 Layer: TopSilkscreenLayer*
G04 EasyEDA v6.5.22, 2023-01-18 18:11:45*
G04 3f45770606e946e99412526f685ae31c,41bbaa2022c14ae6819927e2b53804d3,10*
G04 Gerber Generator version 0.2*
G04 Scale: 100 percent, Rotated: No, Reflected: No *
G04 Dimensions in millimeters *
G04 leading zeros omitted , absolute positions ,4 integer and 5 decimal *
%FSLAX45Y45*%
%MOMM*%

%ADD10C,0.4000*%
%ADD11C,2.0000*%

%LPD*%
G36*
X-5256987Y-760120D02*
G01*
X-5342026Y-912977D01*
X-5416042Y-1046632D01*
X-5474208Y-1152499D01*
X-5528005Y-1251661D01*
X-5550103Y-1293012D01*
X-5569610Y-1330147D01*
X-5592622Y-1375054D01*
X-5607202Y-1404874D01*
X-5618581Y-1429562D01*
X-5627065Y-1449781D01*
X-5633008Y-1466443D01*
X-5636514Y-1478686D01*
X-5638038Y-1486509D01*
X-5638800Y-1493723D01*
X-5638833Y-1498244D01*
X-5598972Y-1498244D01*
X-5598972Y-1495958D01*
X-5598566Y-1492554D01*
X-5597601Y-1487830D01*
X-5594959Y-1478737D01*
X-5592724Y-1472133D01*
X-5585460Y-1453946D01*
X-5515051Y-1476298D01*
X-5472277Y-1489354D01*
X-5441645Y-1498396D01*
X-5410504Y-1507083D01*
X-5416651Y-1507947D01*
X-5427573Y-1510182D01*
X-5438343Y-1513230D01*
X-5448960Y-1517040D01*
X-5459374Y-1521612D01*
X-5469636Y-1526844D01*
X-5475411Y-1530146D01*
X-5316626Y-1530146D01*
X-5286298Y-1536242D01*
X-5261102Y-1540814D01*
X-5248767Y-1542846D01*
X-4886248Y-1542745D01*
X-4836261Y-1536090D01*
X-4786274Y-1528622D01*
X-4695037Y-1513789D01*
X-4680762Y-1545336D01*
X-4673396Y-1563014D01*
X-4670907Y-1569618D01*
X-4669129Y-1575054D01*
X-4667961Y-1579473D01*
X-4667250Y-1583080D01*
X-4666691Y-1589735D01*
X-4666894Y-1591767D01*
X-4668926Y-1593646D01*
X-4676698Y-1598371D01*
X-4683810Y-1601673D01*
X-4693462Y-1605229D01*
X-4705807Y-1608988D01*
X-4720996Y-1612849D01*
X-4739182Y-1616760D01*
X-4753864Y-1619504D01*
X-4763719Y-1621078D01*
X-4790236Y-1624838D01*
X-4797653Y-1615186D01*
X-4806442Y-1604670D01*
X-4815484Y-1594764D01*
X-4824730Y-1585366D01*
X-4834178Y-1576679D01*
X-4843932Y-1568602D01*
X-4853838Y-1561236D01*
X-4863998Y-1554581D01*
X-4874412Y-1548739D01*
X-4887010Y-1542846D01*
X-5248452Y-1542897D01*
X-5216702Y-1547520D01*
X-5184698Y-1551228D01*
X-5158994Y-1553464D01*
X-5134152Y-1554988D01*
X-5103418Y-1556004D01*
X-5072634Y-1556207D01*
X-5041747Y-1555546D01*
X-5022291Y-1554784D01*
X-5031232Y-1560728D01*
X-5036210Y-1564386D01*
X-5045760Y-1572412D01*
X-5054752Y-1581150D01*
X-5063185Y-1590751D01*
X-5070906Y-1601063D01*
X-5077917Y-1612087D01*
X-5081117Y-1617878D01*
X-5084114Y-1623872D01*
X-5089448Y-1636318D01*
X-5091379Y-1641652D01*
X-5131663Y-1639519D01*
X-5164175Y-1636776D01*
X-5189372Y-1633982D01*
X-5214264Y-1630730D01*
X-5244744Y-1626107D01*
X-5248097Y-1617218D01*
X-5253329Y-1605229D01*
X-5259222Y-1593748D01*
X-5265674Y-1582826D01*
X-5272735Y-1572564D01*
X-5280304Y-1562862D01*
X-5288381Y-1553870D01*
X-5296916Y-1545539D01*
X-5305856Y-1537919D01*
X-5316626Y-1530146D01*
X-5475411Y-1530146D01*
X-5484571Y-1535938D01*
X-5494223Y-1542745D01*
X-5503621Y-1550111D01*
X-5511038Y-1556461D01*
X-5527852Y-1549806D01*
X-5542483Y-1543608D01*
X-5554827Y-1537868D01*
X-5565140Y-1532585D01*
X-5573471Y-1527759D01*
X-5580075Y-1523441D01*
X-5587238Y-1517904D01*
X-5591759Y-1513281D01*
X-5594705Y-1509064D01*
X-5598007Y-1502460D01*
X-5598871Y-1499768D01*
X-5598972Y-1498244D01*
X-5638833Y-1498244D01*
X-5638850Y-1500581D01*
X-5638038Y-1506982D01*
X-5636615Y-1512722D01*
X-5634837Y-1517751D01*
X-5633008Y-1521866D01*
X-5628690Y-1529638D01*
X-5625846Y-1533855D01*
X-5622544Y-1538224D01*
X-5618683Y-1542643D01*
X-5614212Y-1547164D01*
X-5609132Y-1551635D01*
X-5603341Y-1556054D01*
X-5595924Y-1560931D01*
X-5587288Y-1565910D01*
X-5577382Y-1570990D01*
X-5566257Y-1576273D01*
X-5553913Y-1581708D01*
X-5540400Y-1587347D01*
X-5545785Y-1594104D01*
X-5553100Y-1604060D01*
X-5560060Y-1614322D01*
X-5566714Y-1624888D01*
X-5573014Y-1635658D01*
X-5579008Y-1646682D01*
X-5584748Y-1657908D01*
X-5590286Y-1669338D01*
X-5595569Y-1680921D01*
X-5603138Y-1698498D01*
X-5615076Y-1728266D01*
X-5630875Y-1770329D01*
X-5593334Y-1784197D01*
X-5584444Y-1760372D01*
X-5575401Y-1736902D01*
X-5566105Y-1713992D01*
X-5561279Y-1702765D01*
X-5553862Y-1686407D01*
X-5548782Y-1675790D01*
X-5543499Y-1665427D01*
X-5538012Y-1655368D01*
X-5532374Y-1645615D01*
X-5526481Y-1636166D01*
X-5520385Y-1627124D01*
X-5514035Y-1618437D01*
X-5506262Y-1608836D01*
X-5496915Y-1598523D01*
X-5487162Y-1589024D01*
X-5477103Y-1580337D01*
X-5466689Y-1572514D01*
X-5456072Y-1565656D01*
X-5445353Y-1559712D01*
X-5434482Y-1554784D01*
X-5429097Y-1552702D01*
X-5423662Y-1550873D01*
X-5418226Y-1549349D01*
X-5407507Y-1547164D01*
X-5396890Y-1546098D01*
X-5391658Y-1546047D01*
X-5386527Y-1546301D01*
X-5381396Y-1546860D01*
X-5376265Y-1547723D01*
X-5371134Y-1548892D01*
X-5360974Y-1552092D01*
X-5350967Y-1556512D01*
X-5346039Y-1559153D01*
X-5336387Y-1565249D01*
X-5327091Y-1572514D01*
X-5322620Y-1576527D01*
X-5318252Y-1580794D01*
X-5314035Y-1585315D01*
X-5305958Y-1595170D01*
X-5302199Y-1600454D01*
X-5295138Y-1611782D01*
X-5291886Y-1617827D01*
X-5288838Y-1624076D01*
X-5285994Y-1630578D01*
X-5281777Y-1641906D01*
X-5278831Y-1651507D01*
X-5276291Y-1661515D01*
X-5274056Y-1671929D01*
X-5272227Y-1682750D01*
X-5270652Y-1693925D01*
X-5269382Y-1705457D01*
X-5267655Y-1729435D01*
X-5266994Y-1748129D01*
X-5266740Y-1773834D01*
X-5267096Y-1800301D01*
X-5268925Y-1854504D01*
X-5228894Y-1856028D01*
X-5226507Y-1787652D01*
X-5226304Y-1760626D01*
X-5226456Y-1747266D01*
X-5226862Y-1734007D01*
X-5227523Y-1720900D01*
X-5228437Y-1707946D01*
X-5229707Y-1695196D01*
X-5231333Y-1682648D01*
X-5233720Y-1668170D01*
X-5198770Y-1672996D01*
X-5162956Y-1677060D01*
X-5136489Y-1679193D01*
X-5100929Y-1681124D01*
X-5102199Y-1690878D01*
X-5103317Y-1702511D01*
X-5103977Y-1714347D01*
X-5104282Y-1726336D01*
X-5104231Y-1738477D01*
X-5103622Y-1757019D01*
X-5101844Y-1782165D01*
X-5099202Y-1807667D01*
X-5095189Y-1839874D01*
X-5089855Y-1878736D01*
X-5050180Y-1873250D01*
X-5054041Y-1844649D01*
X-5056682Y-1823415D01*
X-5059019Y-1802485D01*
X-5060950Y-1782013D01*
X-5062728Y-1755597D01*
X-5063388Y-1730298D01*
X-5063185Y-1718208D01*
X-5062677Y-1706524D01*
X-5061762Y-1695246D01*
X-5060391Y-1684426D01*
X-5058613Y-1674063D01*
X-5056327Y-1664258D01*
X-5053533Y-1655013D01*
X-5051958Y-1650593D01*
X-5049316Y-1644192D01*
X-5046370Y-1638046D01*
X-5043119Y-1632153D01*
X-5039614Y-1626514D01*
X-5035854Y-1621129D01*
X-5031841Y-1615998D01*
X-5027625Y-1611122D01*
X-5023205Y-1606499D01*
X-5018582Y-1602181D01*
X-5013807Y-1598117D01*
X-5008880Y-1594307D01*
X-4998567Y-1587550D01*
X-4993233Y-1584604D01*
X-4987798Y-1581962D01*
X-4982311Y-1579626D01*
X-4976774Y-1577543D01*
X-4971186Y-1575765D01*
X-4965547Y-1574292D01*
X-4954270Y-1572310D01*
X-4943043Y-1571548D01*
X-4932781Y-1572006D01*
X-4923332Y-1573428D01*
X-4913884Y-1575816D01*
X-4904486Y-1579118D01*
X-4895138Y-1583283D01*
X-4885842Y-1588414D01*
X-4881168Y-1591259D01*
X-4871974Y-1597710D01*
X-4862779Y-1604975D01*
X-4853736Y-1613103D01*
X-4844745Y-1622094D01*
X-4835855Y-1631899D01*
X-4827117Y-1642465D01*
X-4818481Y-1653844D01*
X-4809947Y-1666036D01*
X-4798314Y-1684274D01*
X-4792573Y-1693875D01*
X-4781346Y-1714042D01*
X-4767681Y-1740763D01*
X-4757013Y-1763166D01*
X-4743856Y-1792224D01*
X-4725822Y-1834438D01*
X-4702911Y-1890217D01*
X-4666030Y-1874977D01*
X-4694072Y-1806600D01*
X-4704537Y-1782165D01*
X-4720590Y-1746300D01*
X-4731664Y-1723136D01*
X-4743094Y-1700682D01*
X-4754930Y-1679092D01*
X-4765395Y-1661464D01*
X-4742180Y-1658010D01*
X-4726330Y-1654962D01*
X-4712004Y-1651914D01*
X-4699152Y-1648815D01*
X-4687671Y-1645564D01*
X-4677410Y-1642211D01*
X-4668266Y-1638706D01*
X-4660138Y-1634896D01*
X-4652924Y-1630832D01*
X-4646523Y-1626209D01*
X-4641138Y-1620977D01*
X-4636668Y-1615236D01*
X-4633061Y-1609191D01*
X-4630318Y-1602994D01*
X-4628489Y-1596796D01*
X-4627422Y-1590802D01*
X-4627168Y-1585163D01*
X-4627473Y-1579727D01*
X-4628134Y-1574241D01*
X-4629251Y-1568450D01*
X-4630877Y-1562252D01*
X-4632960Y-1555496D01*
X-4638954Y-1539646D01*
X-4647692Y-1519682D01*
X-4659477Y-1494282D01*
X-4760468Y-1282954D01*
X-4991404Y-797458D01*
X-5027574Y-814679D01*
X-4712665Y-1476197D01*
X-4771999Y-1485849D01*
X-4837379Y-1495755D01*
X-4889449Y-1502714D01*
X-4915357Y-1505762D01*
X-4941163Y-1508506D01*
X-4979720Y-1511909D01*
X-5018074Y-1514398D01*
X-5043474Y-1515465D01*
X-5068773Y-1516024D01*
X-5087620Y-1516075D01*
X-5118912Y-1515465D01*
X-5150002Y-1513890D01*
X-5174691Y-1511858D01*
X-5199329Y-1509268D01*
X-5230012Y-1505153D01*
X-5260644Y-1500174D01*
X-5278932Y-1496822D01*
X-5315458Y-1489303D01*
X-5339740Y-1483766D01*
X-5370068Y-1476298D01*
X-5406390Y-1466596D01*
X-5436666Y-1458061D01*
X-5466892Y-1449171D01*
X-5515254Y-1434287D01*
X-5568797Y-1417269D01*
X-5556859Y-1392885D01*
X-5534202Y-1348486D01*
X-5497931Y-1280007D01*
X-5448300Y-1188262D01*
X-5391200Y-1084275D01*
X-5296154Y-912672D01*
X-5222087Y-779475D01*
G37*
G36*
X-5107787Y-192989D02*
G01*
X-5131866Y-193598D01*
X-5155895Y-194767D01*
X-5187238Y-196900D01*
X-5198973Y-198221D01*
X-5208016Y-200202D01*
X-5213350Y-201930D01*
X-5219192Y-204724D01*
X-5224932Y-209296D01*
X-5230063Y-216204D01*
X-5233162Y-224637D01*
X-5233670Y-233070D01*
X-5232298Y-241147D01*
X-5229656Y-248615D01*
X-5226304Y-255828D01*
X-5222036Y-263448D01*
X-5216906Y-271881D01*
X-5207254Y-286359D01*
X-5191353Y-309118D01*
X-5173624Y-333502D01*
X-5156098Y-356870D01*
X-5137505Y-380949D01*
X-5131358Y-388518D01*
X-5125618Y-395071D01*
X-5120132Y-400761D01*
X-5118049Y-402336D01*
X-5111140Y-405841D01*
X-5111546Y-410819D01*
X-5111851Y-419862D01*
X-5112308Y-424789D01*
X-5112867Y-427126D01*
X-5119979Y-485952D01*
X-5127498Y-541832D01*
X-5131511Y-567791D01*
X-5135727Y-591870D01*
X-5140147Y-613714D01*
X-5142433Y-623671D01*
X-5147259Y-641502D01*
X-5149799Y-649224D01*
X-5152694Y-656945D01*
X-5155641Y-663651D01*
X-5158587Y-669493D01*
X-5161534Y-674471D01*
X-5164480Y-678688D01*
X-5167376Y-682193D01*
X-5170220Y-685139D01*
X-5173014Y-687476D01*
X-5178704Y-691134D01*
X-5184749Y-693674D01*
X-5191506Y-695401D01*
X-5199227Y-696671D01*
X-5207355Y-697585D01*
X-5215331Y-697941D01*
X-5223052Y-697738D01*
X-5230571Y-696925D01*
X-5237886Y-695350D01*
X-5244947Y-693013D01*
X-5251805Y-689864D01*
X-5258409Y-685749D01*
X-5264962Y-680415D01*
X-5271668Y-673760D01*
X-5278526Y-665988D01*
X-5285486Y-657148D01*
X-5292547Y-647446D01*
X-5299710Y-637133D01*
X-5314035Y-615035D01*
X-5316626Y-611784D01*
X-5319826Y-609092D01*
X-5323535Y-607161D01*
X-5327548Y-606044D01*
X-5331714Y-605739D01*
X-5335828Y-606348D01*
X-5339791Y-607771D01*
X-5343296Y-610006D01*
X-5346293Y-612902D01*
X-5348579Y-616356D01*
X-5349494Y-618286D01*
X-5350611Y-622300D01*
X-5350865Y-626465D01*
X-5350713Y-628548D01*
X-5349697Y-632561D01*
X-5347817Y-636320D01*
X-5333288Y-659130D01*
X-5325770Y-670356D01*
X-5317896Y-681278D01*
X-5309666Y-691692D01*
X-5300878Y-701446D01*
X-5296306Y-706018D01*
X-5291531Y-710387D01*
X-5286552Y-714502D01*
X-5281422Y-718362D01*
X-5276138Y-721868D01*
X-5270804Y-724966D01*
X-5265369Y-727710D01*
X-5259832Y-730046D01*
X-5254294Y-732028D01*
X-5248706Y-733704D01*
X-5243118Y-735076D01*
X-5237480Y-736193D01*
X-5226253Y-737514D01*
X-5215178Y-737870D01*
X-5204307Y-737463D01*
X-5193741Y-736346D01*
X-5182971Y-734466D01*
X-5177332Y-733145D01*
X-5171592Y-731367D01*
X-5165801Y-729183D01*
X-5160010Y-726440D01*
X-5154269Y-723138D01*
X-5148630Y-719124D01*
X-5144820Y-715721D01*
X-5141214Y-711606D01*
X-5137861Y-706932D01*
X-5131612Y-696417D01*
X-5122824Y-679094D01*
X-5117744Y-702056D01*
X-5115712Y-709218D01*
X-5113477Y-716076D01*
X-5110937Y-722426D01*
X-5108041Y-728218D01*
X-5104688Y-733399D01*
X-5099710Y-739495D01*
X-5094427Y-744982D01*
X-5088890Y-749858D01*
X-5083200Y-754126D01*
X-5077358Y-757936D01*
X-5071465Y-761288D01*
X-5065572Y-764235D01*
X-5053939Y-769112D01*
X-5047996Y-771245D01*
X-5035804Y-774801D01*
X-5029657Y-776224D01*
X-5023408Y-777341D01*
X-5017160Y-778154D01*
X-5010861Y-778662D01*
X-5004562Y-778814D01*
X-4998313Y-778611D01*
X-4992065Y-778002D01*
X-4985867Y-776986D01*
X-4979720Y-775563D01*
X-4973675Y-773633D01*
X-4967732Y-771245D01*
X-4961890Y-768350D01*
X-4956302Y-765048D01*
X-4951069Y-761390D01*
X-4946142Y-757428D01*
X-4941519Y-753211D01*
X-4933086Y-744016D01*
X-4925618Y-734060D01*
X-4918862Y-723544D01*
X-4912664Y-712724D01*
X-4900269Y-689102D01*
X-4899558Y-687120D01*
X-4898847Y-682955D01*
X-4898999Y-678789D01*
X-4900015Y-674674D01*
X-4901895Y-670915D01*
X-4904486Y-667613D01*
X-4907737Y-664921D01*
X-4911445Y-662990D01*
X-4915458Y-661873D01*
X-4919624Y-661619D01*
X-4923790Y-662228D01*
X-4927701Y-663651D01*
X-4931206Y-665886D01*
X-4934204Y-668782D01*
X-4936490Y-672287D01*
X-4944008Y-686054D01*
X-4951425Y-698906D01*
X-4958842Y-710336D01*
X-4962550Y-715467D01*
X-4966258Y-720140D01*
X-4969967Y-724255D01*
X-4973675Y-727862D01*
X-4977333Y-730859D01*
X-4981041Y-733196D01*
X-4984953Y-735025D01*
X-4989220Y-736447D01*
X-4993843Y-737463D01*
X-4998821Y-738124D01*
X-5004003Y-738378D01*
X-5009438Y-738225D01*
X-5015077Y-737768D01*
X-5020818Y-736904D01*
X-5026710Y-735685D01*
X-5032654Y-734110D01*
X-5038598Y-732180D01*
X-5044541Y-729894D01*
X-5052822Y-726033D01*
X-5060137Y-721614D01*
X-5066639Y-716280D01*
X-5072430Y-709574D01*
X-5075174Y-705561D01*
X-5077764Y-700938D01*
X-5080254Y-695655D01*
X-5082540Y-689660D01*
X-5084572Y-682802D01*
X-5086350Y-675132D01*
X-5087874Y-666496D01*
X-5089398Y-652830D01*
X-5089956Y-644296D01*
X-5090363Y-625449D01*
X-5089906Y-604469D01*
X-5088788Y-581558D01*
X-5087010Y-557022D01*
X-5084724Y-531114D01*
X-5081981Y-504088D01*
X-5073904Y-433476D01*
X-5071262Y-411937D01*
X-5069230Y-411530D01*
X-5065115Y-411175D01*
X-5063083Y-410565D01*
X-5055057Y-406552D01*
X-5046268Y-401523D01*
X-5024983Y-387908D01*
X-5007254Y-376021D01*
X-4987442Y-362407D01*
X-4951323Y-336956D01*
X-4931714Y-322834D01*
X-4914392Y-309930D01*
X-4895850Y-295554D01*
X-4888179Y-288950D01*
X-4881829Y-282752D01*
X-4876495Y-276504D01*
X-4874158Y-272897D01*
X-4872126Y-268782D01*
X-4870704Y-263855D01*
X-4870297Y-258216D01*
X-4871161Y-252374D01*
X-4873040Y-246989D01*
X-4875580Y-242570D01*
X-4881168Y-236423D01*
X-4886756Y-232410D01*
X-4892395Y-229717D01*
X-4903673Y-225501D01*
X-4914798Y-222097D01*
X-4934153Y-217068D01*
X-4980127Y-206857D01*
X-5003139Y-202336D01*
X-5015992Y-200101D01*
X-5029555Y-198018D01*
X-5043728Y-196189D01*
X-5058359Y-194716D01*
X-5071770Y-193751D01*
X-5083759Y-193243D01*
G37*
D10*
X-6550842Y66400D02*
G01*
X-6817357Y94528D01*
X-6535051Y159118D02*
G01*
X-6781071Y228787D01*
X-6498229Y242938D02*
G01*
X-6728454Y363044D01*
X-3528573Y-453656D02*
G01*
X-3228853Y-529856D01*
X-3511516Y-350243D02*
G01*
X-3204176Y-378183D01*
X-3519500Y-229412D02*
G01*
X-3214700Y-216712D01*
X-5191020Y1369578D02*
G01*
X-5288800Y1351516D01*
X-5343954Y1339504D01*
X-5396105Y1326888D01*
X-5444896Y1314061D01*
X-5489973Y1301422D01*
X-5530984Y1289364D01*
X-5567570Y1278288D01*
X-5595518Y1269779D01*
X-5620303Y1262463D01*
X-5642338Y1256489D01*
X-5662030Y1252006D01*
X-5696036Y1248100D01*
X-5725604Y1251932D01*
X-5754019Y1264696D01*
X-5768820Y1274800D01*
X-5784562Y1287581D01*
X-5801659Y1303190D01*
X-5820519Y1321772D01*
X-5841555Y1343482D01*
X-5865174Y1368463D01*
X-5891662Y1396720D01*
X-5920780Y1427693D01*
X-5985443Y1494947D01*
X-6056243Y1564558D01*
X-6130251Y1630867D01*
X-6167546Y1661015D01*
X-6204546Y1688213D01*
X-6240884Y1711754D01*
X-6276197Y1730928D01*
X-6310116Y1745033D01*
X-6342280Y1753356D01*
X-6372321Y1755193D01*
X-6399870Y1749833D01*
X-6424655Y1736818D01*
X-6446751Y1716669D01*
X-6466321Y1690164D01*
X-6483537Y1658068D01*
X-6498562Y1621162D01*
X-6511561Y1580215D01*
X-6522704Y1535998D01*
X-6532153Y1489285D01*
X-6546646Y1391462D01*
X-6556372Y1292928D01*
X-6562658Y1199865D01*
X-6564929Y1157315D01*
X-6566837Y1118450D01*
X-6568551Y1083828D01*
X-6570218Y1053132D01*
X-6571993Y1025829D01*
X-6574025Y1001389D01*
X-6579455Y958969D01*
X-6587710Y921618D01*
X-6599996Y885083D01*
X-6617510Y845103D01*
X-6628604Y822495D01*
X-6641457Y797430D01*
X-6656214Y769376D01*
X-6673032Y737803D01*
X-6691965Y702299D01*
X-6712681Y662937D01*
X-6734766Y619907D01*
X-6757797Y573399D01*
X-6781352Y523610D01*
X-6805010Y470728D01*
X-6828350Y414944D01*
X-6850951Y356453D01*
X-6872391Y295442D01*
X-6892251Y232107D01*
X-6910108Y166636D01*
X-6925541Y99225D01*
X-6938129Y30060D01*
X-6947453Y-40660D01*
X-6953089Y-112750D01*
X-6954619Y-186016D01*
X-6951705Y-260256D01*
X-6944372Y-335224D01*
X-6932726Y-410674D01*
X-6916874Y-486354D01*
X-6896928Y-562010D01*
X-6872993Y-637392D01*
X-6845178Y-712251D01*
X-6813593Y-786333D01*
X-6778343Y-859391D01*
X-6739536Y-931169D01*
X-6697286Y-1001415D01*
X-6651696Y-1069886D01*
X-6602874Y-1136322D01*
X-6550931Y-1200477D01*
X-6495973Y-1262098D01*
X-6438112Y-1320934D01*
X-6377452Y-1376781D01*
X-6314102Y-1429618D01*
X-6248166Y-1479473D01*
X-6179753Y-1526372D01*
X-6108966Y-1570344D01*
X-6035916Y-1611416D01*
X-5960704Y-1649615D01*
X-5883440Y-1684967D01*
X-5804227Y-1717502D01*
X-5723173Y-1747245D01*
X-5640384Y-1774223D01*
X-5555968Y-1798462D01*
X-5470027Y-1819993D01*
X-5382668Y-1838843D01*
X-5294002Y-1855035D01*
X-5204129Y-1868601D01*
X-5113190Y-1879541D01*
X-5021440Y-1887766D01*
X-4929162Y-1893158D01*
X-4836642Y-1895604D01*
X-4744166Y-1894987D01*
X-4652017Y-1891195D01*
X-4560481Y-1884108D01*
X-4469843Y-1873613D01*
X-4380387Y-1859592D01*
X-4292399Y-1841936D01*
X-4206163Y-1820524D01*
X-4121965Y-1795241D01*
X-4040088Y-1765975D01*
X-3960820Y-1732607D01*
X-3884444Y-1695025D01*
X-3811244Y-1653110D01*
X-3741458Y-1606831D01*
X-3675133Y-1556473D01*
X-3612263Y-1502412D01*
X-3552847Y-1445013D01*
X-3496881Y-1384645D01*
X-3444361Y-1321681D01*
X-3395286Y-1256484D01*
X-3349647Y-1189431D01*
X-3307448Y-1120886D01*
X-3268680Y-1051222D01*
X-3233341Y-980805D01*
X-3201431Y-910005D01*
X-3172942Y-839195D01*
X-3147872Y-768741D01*
X-3126219Y-699013D01*
X-3107979Y-630382D01*
X-3093107Y-563178D01*
X-3081390Y-497563D01*
X-3072574Y-433646D01*
X-3066412Y-371541D01*
X-3062645Y-311360D01*
X-3061025Y-253210D01*
X-3061299Y-197208D01*
X-3063212Y-143459D01*
X-3066511Y-92080D01*
X-3070948Y-43177D01*
X-3076265Y3134D01*
X-3082213Y46743D01*
X-3088540Y87541D01*
X-3094992Y125415D01*
X-3101317Y160253D01*
X-3107260Y191945D01*
X-3112604Y220469D01*
X-3117288Y246212D01*
X-3124558Y291325D01*
X-3128853Y331246D01*
X-3129965Y369935D01*
X-3127682Y411355D01*
X-3121787Y459468D01*
X-3117420Y487271D01*
X-3112071Y518233D01*
X-3105713Y552846D01*
X-3098319Y591611D01*
X-3089927Y634822D01*
X-3080829Y681944D01*
X-3071395Y732213D01*
X-3061985Y784865D01*
X-3044703Y894262D01*
X-3031896Y1004023D01*
X-3028081Y1057135D01*
X-3026481Y1108044D01*
X-3027456Y1155989D01*
X-3031373Y1200208D01*
X-3038596Y1239936D01*
X-3049490Y1274409D01*
X-3064418Y1302865D01*
X-3083747Y1324536D01*
X-3107687Y1338905D01*
X-3135866Y1346385D01*
X-3167758Y1347614D01*
X-3202848Y1343235D01*
X-3240613Y1333888D01*
X-3280531Y1320218D01*
X-3322086Y1302862D01*
X-3364753Y1282463D01*
X-3451344Y1235095D01*
X-3536144Y1183248D01*
X-3614986Y1132044D01*
X-3650874Y1108290D01*
X-3683711Y1086619D01*
X-3713132Y1067559D01*
X-3739413Y1051181D01*
X-3762989Y1037435D01*
X-3784295Y1026269D01*
X-3803771Y1017635D01*
X-3821849Y1011483D01*
X-3855562Y1006429D01*
X-3888920Y1010709D01*
X-3906560Y1016228D01*
X-3925417Y1023932D01*
X-3945933Y1033769D01*
X-3968541Y1045697D01*
X-3993677Y1059660D01*
X-4021777Y1075611D01*
X-4060510Y1097602D01*
X-4103941Y1121902D01*
X-4151693Y1147937D01*
X-4203379Y1175141D01*
X-4258627Y1202936D01*
X-4317050Y1230756D01*
X-4419714Y1276073D01*
D11*
G75*
G01
X-4176992Y-271998D02*
G03X-4176992Y-271998I-100000J0D01*
G75*
G01
X-5771987Y-38999D02*
G03X-5771987Y-38999I-100000J0D01*
M02*
